<svg width="167" height="78" viewBox="0 0 167 78" fill="none" xmlns="http://www.w3.org/2000/svg">
<path d="M166.877 0.00207692H0V41.5C0 46.5609 14.9257 0.15942 28 21C41.0743 41.8406 35.1485 78.2298 46.0743 63.7852C57 49.3406 55.2597 46.8878 63 49.858C66.0249 51.0187 62.5 62.9452 69 49.858C75.5 36.7708 78.9055 68.1388 89.5 58.0482C100.094 47.9577 94.9785 70.4048 104.5 71.67C114.021 72.9352 106.454 48.0888 121.5 64.3055C136.546 80.5222 124.78 56.4589 139.985 58.0482C147.639 58.8482 146.096 57.0276 153.613 49.858C161.13 42.6884 166.877 78 166.877 78C166.877 78 167.154 -0.464988 166.877 0.00207692Z" fill="#999F89" fill-opacity="0.6"/>
<path d="M166.877 0.00481488H0V30.3375C0 35.0893 17.1904 -3.45881 32.5 24.5C47.8096 52.4588 37.5 65.7344 52 50.6909C66.5 35.6475 59.5005 51.6187 67.5 43.8068C75.4995 35.9948 78.4055 60.1653 89 50.6909C99.5945 41.2166 94 59.8289 104 67.3073C114 74.7856 105.225 41.6935 120.271 56.9199C135.318 72.1464 124.78 45.1967 139.985 46.6889C147.639 47.44 145.483 50.5389 153 43.8072C160.517 37.0754 166.877 60.8502 166.877 60.8502C166.877 60.8502 167.154 -0.433729 166.877 0.00481488Z" fill="#999F89"/>
</svg>
