<svg width="167" height="71" viewBox="0 0 167 71" fill="none" xmlns="http://www.w3.org/2000/svg">
<g clip-path="url(#clip0_133_94)">
<path d="M166.877 8.00317H0V33.8296C0 38.7489 13.0324 1.44569 27.0672 33.8296C41.1021 66.2135 47.3173 75.4063 58.878 65.9776L70.4066 55.9665C78.4061 47.8792 80.8644 70.2843 91.4589 60.4759C102.053 50.6676 94.4686 69.7299 103.99 70.9597C113.511 72.1896 105.225 44.7128 120.271 60.4759C135.318 76.2391 124.78 48.3395 139.985 49.8843C147.639 50.6619 146.096 35.5806 153.613 28.6116C161.13 21.6425 166.877 55.9665 166.877 55.9665C166.877 55.9665 167.154 7.54917 166.877 8.00317Z" fill="#999F89" fill-opacity="0.6"/>
<path d="M166.877 0.00316842H0V25.7924C0 30.7047 17.2748 1.39276 31.3096 33.73C45.3445 66.0673 47.3174 67.3093 58.8782 57.8941L70.4067 47.8975C78.4063 39.8218 80.8646 62.1946 91.4591 52.4004C102.053 42.6061 94.4688 61.641 103.99 62.8691C113.512 64.0972 105.225 36.6599 120.271 52.4004C135.318 68.1408 124.779 40.2814 139.986 41.824C147.639 42.6005 146.096 27.5409 153.613 20.5819C161.13 13.6229 166.877 47.8975 166.877 47.8975C166.877 47.8975 167.154 -0.45018 166.877 0.00316842Z" fill="#999F89"/>
</g>
<defs>
<clipPath id="clip0_133_94">
<rect width="167" height="71" fill="white"/>
</clipPath>
</defs>
</svg>
